<svg width="22" height="18" viewBox="0 0 22 18" fill="none" xmlns="http://www.w3.org/2000/svg">
<path d="M15.8398 0C14.093 0 12.5616 0.778928 11.4113 2.25262C11.2579 2.44917 11.1212 2.64579 11 2.83623C10.8788 2.64575 10.7421 2.44917 10.5887 2.25262C9.43837 0.778928 7.90701 0 6.16016 0C2.8602 0 0.5 2.7631 0.5 6.07868C0.5 9.86988 3.60722 13.4429 10.575 17.664C10.7056 17.7431 10.8528 17.7827 11 17.7827C11.1472 17.7827 11.2944 17.7431 11.425 17.664C18.3928 13.443 21.5 9.86992 21.5 6.07872C21.5 2.76486 19.1417 0 15.8398 0Z" fill="#E4E4E4"/>
</svg>
