<svg width="14" height="14" viewBox="0 0 14 14" fill="none" xmlns="http://www.w3.org/2000/svg">
<path d="M12.9647 4.53664C12.9573 4.03197 12.864 3.5313 12.6853 3.0593C12.3727 2.2533 11.736 1.61597 10.93 1.30397C10.464 1.12864 9.97133 1.03464 9.47267 1.02397C8.83133 0.995305 8.628 0.987305 7 0.987305C5.372 0.987305 5.16333 0.987305 4.52667 1.02397C4.02867 1.03464 3.536 1.12864 3.07 1.30397C2.264 1.61597 1.62667 2.2533 1.31467 3.0593C1.13933 3.5253 1.04467 4.01797 1.03533 4.51597C1.00667 5.15797 0.998001 5.3613 0.998001 6.9893C0.998001 8.6173 0.998001 8.8253 1.03533 9.46264C1.04533 9.9613 1.13933 10.4533 1.31467 10.9206C1.62733 11.726 2.264 12.3633 3.07067 12.6753C3.53467 12.8566 4.02733 12.9593 4.52733 12.9753C5.16933 13.004 5.37267 13.0126 7.00067 13.0126C8.62867 13.0126 8.83733 13.0126 9.474 12.9753C9.972 12.9653 10.4647 12.8713 10.9313 12.696C11.7373 12.3833 12.374 11.746 12.6867 10.9406C12.862 10.474 12.956 9.98197 12.966 9.48264C12.9947 8.8413 13.0033 8.63797 13.0033 7.0093C13.002 5.3813 13.002 5.17464 12.9647 4.53664ZM6.996 10.068C5.29333 10.068 3.914 8.68864 3.914 6.98597C3.914 5.2833 5.29333 3.90397 6.996 3.90397C8.69733 3.90397 10.078 5.2833 10.078 6.98597C10.078 8.68864 8.69733 10.068 6.996 10.068ZM10.2007 4.50864C9.80267 4.50864 9.482 4.1873 9.482 3.78997C9.482 3.39264 9.80267 3.0713 10.2007 3.0713C10.5973 3.0713 10.9187 3.39264 10.9187 3.78997C10.9187 4.1873 10.5973 4.50864 10.2007 4.50864Z" fill="#D0BC7A"/>
</svg>
