<svg width="16" height="16" viewBox="0 0 16 16" fill="none" xmlns="http://www.w3.org/2000/svg">
<path d="M8.00123 9.33272C9.4719 9.33272 10.6679 8.13672 10.6679 6.66606C10.6679 5.19539 9.4719 3.99939 8.00123 3.99939C6.53056 3.99939 5.33456 5.19539 5.33456 6.66606C5.33456 8.13672 6.53056 9.33272 8.00123 9.33272ZM8.00123 5.33272C8.73656 5.33272 9.33456 5.93072 9.33456 6.66606C9.33456 7.40139 8.73656 7.99939 8.00123 7.99939C7.2659 7.99939 6.6679 7.40139 6.6679 6.66606C6.6679 5.93072 7.2659 5.33272 8.00123 5.33272Z" fill="white"/>
<path d="M7.61332 14.5427C7.72932 14.6254 7.86465 14.6667 7.99999 14.6667C8.13532 14.6667 8.27065 14.6254 8.38665 14.5427C8.58932 14.3994 13.3527 10.96 13.3333 6.66671C13.3333 3.72604 10.9407 1.33337 7.99999 1.33337C5.05932 1.33337 2.66665 3.72604 2.66665 6.66337C2.64732 10.96 7.41065 14.3994 7.61332 14.5427ZM7.99999 2.66671C10.206 2.66671 12 4.46071 12 6.67004C12.014 9.62871 9.07465 12.2854 7.99999 13.1567C6.92599 12.2847 3.98599 9.62737 3.99999 6.66671C3.99999 4.46071 5.79399 2.66671 7.99999 2.66671Z" fill="white"/>
</svg>
