<svg width="81" height="14" viewBox="0 0 81 14" fill="none" xmlns="http://www.w3.org/2000/svg">
<path fill-rule="evenodd" clip-rule="evenodd" d="M70.3369 -2.01854e-06H73.1435C77.2469 -2.01854e-06 80.2635 2.99891 80.2635 6.99963C80.2635 11.0003 77.2421 13.9976 73.1435 13.9976H70.3369C66.2286 13.9976 63.2023 10.9971 63.2023 6.99963C63.2023 3.00216 66.2286 -2.01854e-06 70.3369 -2.01854e-06ZM70.3369 11.8658H73.1435C75.9355 11.8658 78.0068 9.78421 78.0068 6.99475C78.0068 4.20529 75.9307 2.12375 73.1435 2.12375H70.3369C67.54 2.12375 65.4557 4.22316 65.4557 6.99475C65.4557 9.76635 67.5449 11.8658 70.3369 11.8658ZM14.0349 8.76639C13.4297 10.6807 11.8287 11.8432 9.7623 11.8432H6.95238C4.24497 11.8432 2.25835 9.81852 2.25835 7.00471C2.25835 4.19089 4.24497 2.15644 6.95238 2.15644H9.7623C11.7636 2.15644 13.3418 3.24105 13.9926 5.04007H16.2363C15.5253 2.00219 12.9627 0.0148234 9.7623 0.0148234H6.95238C2.95147 0.0148234 3.8147e-06 2.9699 3.8147e-06 7.00471C3.8147e-06 11.0395 2.95147 13.9865 6.95238 13.9865H9.7623C13.0164 13.9865 15.5823 11.9439 16.2835 8.76963L14.0349 8.76639ZM20.8431 11.6555V7.87889H28.7831V5.8493H20.8431V2.32432H29.2842V0.254148H18.6222V13.7452H29.4957V11.6555H20.8431ZM32.1705 0.254148H39.7509C43.7274 0.254148 46.6041 3.08258 46.6041 6.99561C46.6041 10.9086 43.7225 13.7452 39.7509 13.7452H32.1705V0.254148ZM34.3914 11.6799H39.6842C42.416 11.6799 44.336 9.72175 44.336 6.99561C44.336 4.26948 42.416 2.32108 39.6842 2.32108H34.3914V11.6799ZM58.5906 8.44068C59.4026 8.15759 60.1049 7.62705 60.5983 6.92402C61.0917 6.22099 61.3512 5.38101 61.3403 4.52277C61.3403 2.03531 59.4057 0.254148 56.8008 0.254148H48.7242V13.7452H50.9451V8.75242H56.3144L59.2186 13.7452H61.7113L58.5906 8.44068ZM56.6707 6.68225H50.9451V2.32432H56.6707C58.135 2.32432 59.082 3.25144 59.082 4.50328C59.082 5.75513 58.1415 6.68225 56.6707 6.68225Z" fill="#D0BC7A"/>
</svg>
