<svg width="14" height="8" viewBox="0 0 14 8" fill="none" xmlns="http://www.w3.org/2000/svg">
<path d="M13.3859 0.570048C13.4793 0.260048 13.3859 0.0327148 12.9446 0.0327148H11.4826C11.1106 0.0327148 10.9406 0.229382 10.8473 0.445382C10.8473 0.445382 10.1039 2.25805 9.05059 3.43338C8.71059 3.77538 8.55525 3.88338 8.36992 3.88338C8.27725 3.88338 8.14259 3.77538 8.14259 3.46538V0.570048C8.14259 0.198048 8.03525 0.0327148 7.72525 0.0327148H5.42792C5.19592 0.0327148 5.05592 0.204715 5.05592 0.368715C5.05592 0.720715 5.58259 0.802048 5.63659 1.79405V3.94605C5.63659 4.41738 5.55192 4.50338 5.36525 4.50338C4.86992 4.50338 3.66459 2.68405 2.94925 0.601382C2.80992 0.196715 2.66925 0.0333818 2.29592 0.0333818H0.834585C0.416585 0.0333818 0.333252 0.230048 0.333252 0.446048C0.333252 0.834048 0.828585 2.75405 2.64059 5.29338C3.84859 7.02738 5.54925 7.96738 7.09859 7.96738C8.02725 7.96738 8.14192 7.75872 8.14192 7.39872V6.08805C8.14192 5.67072 8.23059 5.58672 8.52459 5.58672C8.74059 5.58672 9.11259 5.69605 9.97992 6.53138C10.9706 7.52205 11.1346 7.96672 11.6913 7.96672H13.1526C13.5699 7.96672 13.7786 7.75805 13.6586 7.34605C13.5273 6.93605 13.0539 6.33938 12.4259 5.63338C12.0846 5.23072 11.5746 4.79738 11.4193 4.58072C11.2026 4.30138 11.2653 4.17805 11.4193 3.93005C11.4193 3.93005 13.2006 1.42272 13.3859 0.570048Z" fill="#D0BC7A"/>
</svg>
